<svg width="360" height="720" viewBox="0 0 360 720" fill="none" xmlns="http://www.w3.org/2000/svg">
  <rect width="360" height="720" rx="36" fill="#FFF7ED"/>
  <text x="32" y="62" fill="#111827" font-family="Arial" font-size="30" font-weight="900">Checkout</text>
  <rect x="24" y="92" width="312" height="128" rx="24" fill="white"/>
  <text x="48" y="132" fill="#111827" font-family="Arial" font-size="22" font-weight="900">Botijão P13</text>
  <text x="48" y="164" fill="#64748B" font-family="Arial" font-size="16">Pedido de gás de cozinha</text>
  <text x="48" y="196" fill="#E44F2A" font-family="Arial" font-size="22" font-weight="900">R$ 120,00</text>
  <rect x="24" y="244" width="312" height="96" rx="22" fill="white"/>
  <text x="48" y="284" fill="#111827" font-family="Arial" font-size="18" font-weight="800">Endereço de entrega</text>
  <text x="48" y="314" fill="#64748B" font-family="Arial" font-size="15">Casa, Rua Exemplo, 123</text>
  <rect x="24" y="364" width="312" height="96" rx="22" fill="white"/>
  <text x="48" y="404" fill="#111827" font-family="Arial" font-size="18" font-weight="800">Cupom</text>
  <rect x="48" y="424" width="220" height="22" rx="11" fill="#FFF1EC"/>
  <text x="62" y="441" fill="#E44F2A" font-family="Arial" font-size="13" font-weight="800">Promoções quando disponíveis</text>
  <rect x="24" y="484" width="312" height="92" rx="22" fill="white"/>
  <text x="48" y="522" fill="#111827" font-family="Arial" font-size="18" font-weight="800">Pagamento na entrega</text>
  <text x="48" y="552" fill="#64748B" font-family="Arial" font-size="15">Conforme informado no app</text>
  <rect x="24" y="608" width="312" height="58" rx="20" fill="url(#g)"/>
  <text x="106" y="644" fill="white" font-family="Arial" font-size="20" font-weight="900">Confirmar pedido</text>
  <defs><linearGradient id="g" x1="24" y1="608" x2="336" y2="666"><stop stop-color="#E44F2A"/><stop offset="1" stop-color="#F7A212"/></linearGradient></defs>
</svg>
