<svg width="360" height="720" viewBox="0 0 360 720" fill="none" xmlns="http://www.w3.org/2000/svg">
  <rect width="360" height="720" rx="36" fill="#F8FAFC"/>
  <rect x="22" y="28" width="316" height="78" rx="24" fill="url(#g)"/>
  <text x="48" y="77" fill="white" font-family="Arial" font-size="22" font-weight="800">Central Gás</text>
  <circle cx="298" cy="148" r="28" fill="white"/>
  <path d="M289 150c0-8 4-14 10-14s10 6 10 14v7h-20v-7Z" stroke="#111827" stroke-width="3"/>
  <rect x="24" y="192" width="312" height="170" rx="28" fill="url(#g)"/>
  <text x="48" y="235" fill="white" font-family="Arial" font-size="18" font-weight="700">Bom dia, Cliente</text>
  <text x="48" y="278" fill="white" font-family="Arial" font-size="28" font-weight="900">Seu gás em poucos</text>
  <text x="48" y="314" fill="white" font-family="Arial" font-size="28" font-weight="900">toques</text>
  <rect x="48" y="388" width="264" height="96" rx="22" fill="white"/>
  <text x="68" y="430" fill="#111827" font-family="Arial" font-size="24" font-weight="900">Pronto para pedir</text>
  <text x="68" y="462" fill="#64748B" font-family="Arial" font-size="17">Monte seu pedido pelo app.</text>
  <rect x="48" y="510" width="264" height="122" rx="22" fill="white"/>
  <text x="68" y="552" fill="#111827" font-family="Arial" font-size="24" font-weight="900">Seu botijão</text>
  <text x="68" y="586" fill="#64748B" font-family="Arial" font-size="17">Nível estimado: 100%</text>
  <rect x="0" y="654" width="360" height="66" fill="white"/>
  <circle cx="60" cy="686" r="18" fill="#FFF1EC"/>
  <circle cx="180" cy="686" r="14" fill="#E5E7EB"/>
  <circle cx="300" cy="686" r="14" fill="#E5E7EB"/>
  <defs><linearGradient id="g" x1="24" y1="28" x2="336" y2="362"><stop stop-color="#E44F2A"/><stop offset="1" stop-color="#F7A212"/></linearGradient></defs>
</svg>
